<?xml version="1.0" encoding="utf-8"?>
<!-- Generator: Adobe Illustrator 23.0.0, SVG Export Plug-In . SVG Version: 6.00 Build 0)  -->
<svg version="1.1" id="Camada_1" xmlns="http://www.w3.org/2000/svg" xmlns:xlink="http://www.w3.org/1999/xlink" x="0px" y="0px"
	 viewBox="0 0 2000 2000" style="enable-background:new 0 0 2000 2000;" xml:space="preserve">
<style type="text/css">
	.st0{fill:#FFFFFF;}
</style>
<g>
	<g>
		<g>
			<path d="M296.4,930.3c0-2.5-0.9-4.5-2.7-5.8c-1.8-1.3-5-2.8-9.6-4.3c-4.6-1.5-8.3-3-11-4.4c-7.4-4-11.1-9.4-11.1-16.1
				c0-3.5,1-6.7,3-9.4c2-2.8,4.8-4.9,8.5-6.5c3.7-1.5,7.9-2.3,12.5-2.3c4.7,0,8.8,0.8,12.4,2.5c3.6,1.7,6.4,4.1,8.5,7.1
				c2,3.1,3,6.5,3,10.4h-13.4c0-3-0.9-5.3-2.8-6.9c-1.9-1.6-4.5-2.5-7.9-2.5c-3.3,0-5.8,0.7-7.6,2.1c-1.8,1.4-2.7,3.2-2.7,5.5
				c0,2.1,1.1,3.9,3.2,5.3c2.1,1.4,5.3,2.8,9.4,4c7.6,2.3,13.2,5.1,16.7,8.5c3.5,3.4,5.2,7.6,5.2,12.7c0,5.6-2.1,10-6.4,13.2
				c-4.3,3.2-10,4.8-17.2,4.8c-5,0-9.6-0.9-13.7-2.7c-4.1-1.8-7.2-4.3-9.4-7.5c-2.2-3.2-3.2-6.9-3.2-11.1h13.4
				c0,7.2,4.3,10.8,12.9,10.8c3.2,0,5.7-0.7,7.5-2C295.5,934.5,296.4,932.6,296.4,930.3"/>
			<polygon points="363.5,919.2 337.8,919.2 337.8,936.6 368,936.6 368,947.4 324.4,947.4 324.4,882.4 367.9,882.4 367.9,893.2 
				337.8,893.2 337.8,908.7 363.5,908.7 			"/>
			<path d="M405.4,923.6h-10.7v23.8h-13.4v-65h24.2c7.7,0,13.6,1.7,17.8,5.1c4.2,3.4,6.2,8.3,6.2,14.5c0,4.4-1,8.1-2.9,11.1
				c-1.9,3-4.8,5.3-8.7,7.1l14.1,26.6v0.6h-14.4L405.4,923.6z M394.8,912.7h10.8c3.4,0,6-0.8,7.8-2.6c1.8-1.7,2.8-4.1,2.8-7.1
				c0-3.1-0.9-5.5-2.6-7.2s-4.4-2.6-8-2.6h-10.8V912.7z"/>
			<polygon points="468.4,931.3 483.1,882.4 498.1,882.4 475.4,947.4 461.4,947.4 438.9,882.4 453.7,882.4 			"/>
			<rect x="510.5" y="882.3" width="13.4" height="65"/>
			<path d="M592.9,925.7c-0.5,7-3.1,12.5-7.7,16.5c-4.7,4-10.8,6-18.4,6c-8.3,0-14.9-2.8-19.7-8.4c-4.8-5.6-7.2-13.3-7.2-23.1v-4
				c0-6.3,1.1-11.8,3.3-16.5c2.2-4.8,5.4-8.4,9.5-11c4.1-2.5,8.9-3.8,14.3-3.8c7.5,0,13.6,2,18.1,6c4.6,4,7.2,9.7,8,16.9h-13.4
				c-0.3-4.2-1.5-7.2-3.5-9.1c-2-1.9-5.1-2.8-9.2-2.8c-4.5,0-7.8,1.6-10,4.8c-2.2,3.2-3.4,8.2-3.4,14.9v4.9c0,7,1.1,12.2,3.2,15.4
				c2.1,3.3,5.5,4.9,10.1,4.9c4.1,0,7.2-1,9.3-2.8c2-1.9,3.2-4.8,3.5-8.8H592.9z M571.6,947.1l-0.5,2.6c4.5,0.8,6.7,3.4,6.7,7.7
				c0,3.3-1.4,5.9-4.1,7.8c-2.7,1.9-6.6,2.9-11.5,2.9l-0.3-7.5c3.3,0,5-1.2,5-3.6c0-1.3-0.5-2.1-1.5-2.6c-1-0.5-2.6-0.8-4.8-0.9
				l1.4-6.4H571.6z"/>
			<path d="M660.6,916.3c0,6.4-1.1,12-3.4,16.8c-2.3,4.8-5.5,8.5-9.7,11.2c-4.2,2.6-9,3.9-14.5,3.9c-5.4,0-10.2-1.3-14.4-3.9
				c-4.2-2.6-7.5-6.3-9.8-11.1c-2.3-4.8-3.5-10.3-3.5-16.6v-3.2c0-6.4,1.2-12,3.5-16.9c2.3-4.9,5.6-8.6,9.8-11.2
				c4.2-2.6,9-3.9,14.4-3.9c5.4,0,10.2,1.3,14.5,3.9c4.2,2.6,7.5,6.3,9.8,11.2c2.3,4.9,3.5,10.5,3.5,16.9V916.3z M647,913.4
				c0-6.8-1.2-12-3.7-15.5c-2.4-3.5-5.9-5.3-10.5-5.3c-4.5,0-8,1.8-10.4,5.3s-3.7,8.6-3.7,15.4v3.2c0,6.6,1.2,11.8,3.7,15.5
				c2.4,3.7,5.9,5.5,10.5,5.5c4.5,0,8-1.8,10.4-5.3c2.4-3.5,3.6-8.7,3.7-15.4V913.4z"/>
		</g>
		<g>
			<path d="M302.2,1058.1h-23.5l-4.5,13.4H260l24.2-65h12.4l24.3,65h-14.2L302.2,1058.1z M282.3,1047.3h16.3l-8.2-24.3L282.3,1047.3
				z"/>
			<path d="M381,1006.5v42.8c0,7.1-2.2,12.7-6.7,16.9s-10.5,6.2-18.2,6.2c-7.6,0-13.6-2-18.1-6c-4.5-4-6.7-9.5-6.8-16.6v-43.3h13.4
				v42.9c0,4.3,1,7.4,3.1,9.3c2,2,4.9,2.9,8.5,2.9c7.5,0,11.4-4,11.5-11.9v-43.3H381z"/>
			<polygon points="446.4,1017.4 426.5,1017.4 426.5,1071.5 413.1,1071.5 413.1,1017.4 393.4,1017.4 393.4,1006.5 446.4,1006.5 			
				"/>
			<path d="M511.7,1040.5c0,6.4-1.1,12-3.4,16.8c-2.3,4.8-5.5,8.5-9.7,11.2c-4.2,2.6-9,3.9-14.5,3.9c-5.4,0-10.2-1.3-14.4-3.9
				c-4.2-2.6-7.5-6.3-9.8-11.1c-2.3-4.8-3.5-10.3-3.5-16.6v-3.2c0-6.4,1.2-12,3.5-16.9c2.3-4.9,5.6-8.6,9.8-11.2
				c4.2-2.6,9-3.9,14.4-3.9c5.4,0,10.2,1.3,14.5,3.9c4.2,2.6,7.5,6.3,9.8,11.2c2.3,4.9,3.5,10.5,3.5,16.9V1040.5z M498.1,1037.6
				c0-6.8-1.2-12-3.7-15.5c-2.4-3.5-5.9-5.3-10.5-5.3c-4.5,0-8,1.8-10.4,5.3c-2.5,3.5-3.7,8.6-3.7,15.4v3.2c0,6.6,1.2,11.8,3.7,15.5
				c2.4,3.7,6,5.5,10.5,5.5c4.5,0,8-1.8,10.4-5.3c2.4-3.5,3.6-8.7,3.7-15.4V1037.6z"/>
			<path d="M551,1047.7h-10.7v23.8h-13.4v-65h24.2c7.7,0,13.6,1.7,17.8,5.1c4.2,3.4,6.2,8.3,6.2,14.5c0,4.4-1,8.1-2.9,11.1
				c-1.9,3-4.8,5.3-8.7,7.1l14.1,26.6v0.6h-14.4L551,1047.7z M540.3,1036.9h10.8c3.4,0,6-0.8,7.8-2.6c1.8-1.7,2.8-4.1,2.8-7.1
				c0-3.1-0.9-5.5-2.6-7.2c-1.7-1.8-4.4-2.6-8-2.6h-10.8V1036.9z"/>
			<rect x="591.6" y="1006.5" width="13.4" height="65"/>
			<polygon points="637.1,1060.8 669.9,1060.8 669.9,1071.5 620.4,1071.5 620.4,1063.7 652.5,1017.4 620.4,1017.4 620.4,1006.5 
				669.2,1006.5 669.2,1014.2 			"/>
			<path d="M721.1,1058.1h-23.5l-4.5,13.4h-14.2l24.2-65h12.4l24.3,65h-14.2L721.1,1058.1z M701.2,1047.3h16.3l-8.2-24.3
				L701.2,1047.3z"/>
			<path d="M751.4,1071.5v-65h20c5.7,0,10.8,1.3,15.3,3.9c4.5,2.6,8,6.2,10.6,11c2.5,4.8,3.8,10.1,3.8,16.2v3c0,6-1.2,11.4-3.7,16.1
				c-2.5,4.7-6,8.3-10.5,10.9c-4.5,2.6-9.6,3.9-15.3,3.9H751.4z M764.8,1017.4v43.4h6.5c5.2,0,9.2-1.7,12-5.1
				c2.8-3.4,4.2-8.3,4.3-14.7v-3.4c0-6.6-1.4-11.6-4.1-15c-2.7-3.4-6.7-5.1-12-5.1H764.8z"/>
			<path d="M869.8,1040.5c0,6.4-1.1,12-3.4,16.8c-2.3,4.8-5.5,8.5-9.7,11.2c-4.2,2.6-9,3.9-14.5,3.9c-5.4,0-10.2-1.3-14.4-3.9
				c-4.2-2.6-7.5-6.3-9.8-11.1c-2.3-4.8-3.5-10.3-3.5-16.6v-3.2c0-6.4,1.2-12,3.5-16.9c2.3-4.9,5.6-8.6,9.8-11.2
				c4.2-2.6,9-3.9,14.4-3.9c5.4,0,10.2,1.3,14.5,3.9c4.2,2.6,7.5,6.3,9.8,11.2c2.3,4.9,3.5,10.5,3.5,16.9V1040.5z M856.2,1037.6
				c0-6.8-1.2-12-3.7-15.5c-2.4-3.5-5.9-5.3-10.5-5.3c-4.5,0-8,1.8-10.4,5.3c-2.5,3.5-3.7,8.6-3.7,15.4v3.2c0,6.6,1.2,11.8,3.7,15.5
				c2.4,3.7,6,5.5,10.5,5.5c4.5,0,8-1.8,10.4-5.3s3.6-8.7,3.7-15.4V1037.6z"/>
		</g>
	</g>
	<g>
		<path d="M1082.7,757.6h-54.8v21.8h53.9c28,0,57.8,11.8,57.8,51c0,39.5-29.8,51-57.8,51h-31.5v-80.5h-22.4v102.3h54.8
			c41.6,0,80.2-22.7,80.2-72.8C1162.9,780.6,1124.2,757.6,1082.7,757.6"/>
		<path d="M1260.7,754.3c-42.7,0-76.6,33.6-76.6,76c0,41.6,33,76,76.6,76c33,0,63.4-19.2,72.5-49.5h-24.5
			c-7.1,15.9-23,27.1-47.7,27.1c-28.6,0-51-20-53.4-48.6H1335c0.3-1.5,0.6-4.4,0.6-8.2C1335.6,787.1,1302.9,754.3,1260.7,754.3
			 M1209.7,813.9c6.8-22.1,27.1-37.1,50.4-37.1c23.9,0,43.6,12.7,49.8,37.1H1209.7z"/>
		<path d="M1430.2,776.7c22.4,0,38.9,9.4,47.5,27.4h24.8c-10.9-30.7-37.7-49.8-72.2-49.8c-42.2,0-76.3,33.6-76.3,76
			c0,42.5,34.2,76,76.3,76c34.5,0,61.3-19.2,72.2-49.5h-24.8c-8.5,18.9-25.3,27.1-47.5,27.1c-30.4,0-53.1-23.3-53.1-53.7
			C1377.1,800,1399.8,776.7,1430.2,776.7"/>
		<path d="M1652.2,757.6v23.3c-10.9-15-31.3-26.5-56.3-26.5c-40.7,0-75.2,33.6-75.2,76.1s34.5,76,75.2,76
			c25.1,0,45.4-11.5,56.3-26.5v23.3h22.4V757.6H1652.2z M1597.9,884.3c-29.8,0-53.9-23-53.9-53.9c0-30.7,24.2-53.9,53.9-53.9
			c29.8,0,54,21.5,54,53.9C1651.9,861.6,1627.4,884.3,1597.9,884.3"/>
	</g>
	<g>
		<polygon points="1027.9,1056.4 1050,1056.4 1050,1114.7 1131.8,1114.7 1131.8,1056.4 1153.9,1056.4 1153.9,1196.3 1131.8,1196.3 
			1131.8,1135.7 1050,1135.7 1050,1196.3 1027.9,1196.3 		"/>
		<path d="M1232.1,1172.5l-53-116.2h23.5l40.8,89.5L1232.1,1172.5z M1202.6,1224.7c17,0.6,27.2-6.5,35.1-26.1l58.4-142.2h24.1
			l-61.2,147.9c-13.6,32.3-34.3,42.2-56.4,41.4V1224.7z"/>
		<path d="M1325.7,1126.4c0-40.8,33.1-73.1,72.5-73.1c23.8,0,43.3,11,53.8,25.5V1004h21.5v192.4h-21.5v-22.4
			c-10.5,14.5-30,25.5-53.8,25.5C1358.9,1199.4,1325.7,1167.2,1325.7,1126.4 M1451.8,1126.4c0-31.2-23.2-51.8-52.1-51.8
			c-28.3,0-51.6,22.4-51.6,51.8c0,29.8,23.2,51.8,51.6,51.8C1428,1178.2,1451.8,1156.7,1451.8,1126.4"/>
		<path d="M1509.1,1056.4h21.5v26.9c9.1-17.3,26.1-27.5,49.6-27.5v22.1c-25.2-0.6-49.6,13.6-49.6,51.8v66.6h-21.5V1056.4z"/>
		<path d="M1592.1,1126.4c0-40.8,33.1-73.1,72.2-73.1c24.1,0,43.6,11,54.1,25.5v-22.4h21.5v139.9h-21.5v-22.4
			c-10.5,14.5-30,25.5-54.1,25.5C1625.3,1199.4,1592.1,1167.2,1592.1,1126.4 M1718.2,1126.4c0-31.2-23.2-51.8-51.8-51.8
			c-28.6,0-51.8,22.4-51.8,51.8c0,29.8,23.2,51.8,51.8,51.8C1694.7,1178.2,1718.2,1156.4,1718.2,1126.4"/>
	</g>
</g>
</svg>
